<?xml version="1.0" encoding="utf-8"?>
<!-- Generator: Adobe Illustrator 16.0.0, SVG Export Plug-In . SVG Version: 6.00 Build 0)  -->
<!DOCTYPE svg PUBLIC "-//W3C//DTD SVG 1.1//EN" "http://www.w3.org/Graphics/SVG/1.1/DTD/svg11.dtd">
<svg version="1.1" xmlns="http://www.w3.org/2000/svg" xmlns:xlink="http://www.w3.org/1999/xlink" x="0px" y="0px"
	 width="224.95px" height="74.856px" viewBox="0 0 224.95 74.856" enable-background="new 0 0 224.95 74.856" xml:space="preserve">
<g id="Layer_1">
</g>
<g id="Layer_2">
	<g>
		<g>
			<circle cx="63.089" cy="11.822" r="1.371"/>
			<path d="M0.175,62.904c0.648,1.485,3.111,2.977,4.797,3.267c2.09,0.36,7.6-0.334,8.885-0.638
				c0.064,0.004,0.944,0.138,5.072,4.552c1.399,1.494,3.271,2.376,5.275,2.484c1.171,0.062,2.586,0.062,3.996-0.114
				c1.014,0.657,5.26,2.4,7.725,2.401c0.213,0,0.412-0.013,0.595-0.041c0.839-0.127,1.366-0.458,1.575-0.982
				c0.125-0.317,0.104-0.645,0.025-0.939c0.983,0.295,2.236,0.601,3.227,0.601c0.699,0,1.267-0.152,1.514-0.565
				c0.086-0.141,0.236-0.553,0.436-1.16c0.172-0.203,0.43-0.533,0.749-0.953c0.876,0.272,3.624,1.127,5.147,1.597
				c0.884,0.273,2.651,0.542,4.364,0.542c1.592,0,3.136-0.231,3.877-0.914c0.35-0.323,0.494-0.73,0.415-1.179
				c-0.241-1.406-2.76-2.899-3.941-3.402c-1.16-0.494-4.025-2.004-5.15-2.6c0.619-0.698,1.177-1.265,1.599-1.574
				c1.926-1.414,1.778-13.819,1.708-17.023c7.703-2.804,9.705-6.913,10.061-7.815c0.662-0.31,2.142-0.91,2.893-0.837
				c0.715,0.067,4.146,2.187,6.309,3.613c-0.914,3.85-1.653,6.63-2.044,7.409c-1.841,3.684-4.052,21.814-4.363,25.237
				c-0.021,0.231,0.149,0.438,0.381,0.458l0.039,0.002c0.216,0,0.399-0.166,0.419-0.385c0.374-4.104,2.584-21.544,4.279-24.936
				c0.421-0.842,1.213-3.813,2.18-7.896l0.002-0.004c3.163-13.339,8.225-38.511,8.501-39.893c0.047-0.229-0.103-0.45-0.33-0.496
				c-0.227-0.046-0.45,0.103-0.496,0.33c-0.029,0.146-1.022,5.091-2.399,11.743c-0.838-0.097-2.949-0.052-4.34,2.517
				c-0.277,0.514-0.503,0.973-0.699,1.397c-0.354-2.187-1.316-5.302-1.569-6.103l-0.013-0.022c0.95-1.586,1.037-3.399,0.351-5.664
				c-0.24-1.973-0.921-3.304-2.008-3.889c-0.849-0.456-1.706-0.328-2.211-0.184c-0.868-0.41-5.188-2.121-11.023,0.941
				c-0.362-0.183-0.832-0.336-1.355-0.276c-0.709,0.081-1.327,0.518-1.832,1.296c-0.569,0.877-0.733,1.749-0.71,2.513
				c-0.279,1.355-2.318,11.26-2.387,13.508c-1.074,0.484-5.444,2.425-9.789,3.874c-1.318,0.439-2.51,0.783-3.666,1.116
				c-3.213,0.931-5.752,1.665-7.771,3.609c-2.653,2.554-7.816,19.021-7.828,32.454c-1.421-0.765-4.998-2.216-9.621-0.641
				c-2.949,1.008-5.375,1.019-7.146,1.025c-1.732,0.007-2.983,0.012-3.609,0.972C-0.055,61.729-0.086,62.305,0.175,62.904z
				 M74.78,25.71c-0.617,2.885-1.239,5.753-1.836,8.439c-1.731-1.643-1.782-3.391-1.756-3.898
				C72.745,28.94,73.933,27.235,74.78,25.71z M44.589,70.101l0.034-0.045c0.975-1.286,2.34-3.084,3.57-4.543
				c0.982,0.524,4.112,2.181,5.384,2.721c1.336,0.569,3.291,1.898,3.441,2.772c0.029,0.161-0.018,0.285-0.157,0.413
				c-1.101,1.015-5.593,0.752-7.421,0.188C48.062,71.183,45.678,70.441,44.589,70.101z M44.001,69.481
				c1.889-6.414,5.315-19.578,5.315-21.574c0-0.596,0.163-1.025,0.484-1.277c0.423-0.334,1.047-0.33,1.42-0.292
				c0.128,5.958-0.124,15.356-1.364,16.268C48.419,63.66,45.773,67.142,44.001,69.481z M29.569,72.217
				c0.84-0.186,1.651-0.443,2.371-0.815c1.198-0.621,2.275-0.785,3.201-0.491c1.213,0.388,1.777,1.458,1.782,1.469l0.027,0.035
				l0.017,0.034c0.133,0.168,0.48,0.729,0.342,1.076c-0.111,0.28-0.561,0.403-0.917,0.458C34.73,74.228,31.27,72.979,29.569,72.217z
				 M0.97,61.679c0.379-0.58,1.385-0.606,2.906-0.612c1.83-0.007,4.336-0.06,7.418-1.112c4.918-1.68,8.621,0.275,9.377,0.745
				c0.055,0.195,0.209,0.214,0.396,0.214h0.005c0.233,0,0.419-0.128,0.416-0.361C21.28,47.423,26.5,30.546,29.054,28.088
				c1.869-1.801,4.319-2.535,7.422-3.433c1.109-0.32,2.365-0.697,3.697-1.143c4.141-1.379,8.293-3.202,9.657-3.814
				c0.315,1.229,1.328,4.321,3.88,6.104c1.217,0.853,2.607,1.28,4.154,1.28c0.541,0,1.102-0.053,1.682-0.158
				c0.229-0.042,0.38-0.261,0.338-0.49c-0.041-0.229-0.261-0.383-0.49-0.339c-1.995,0.363-3.747,0.033-5.201-0.983
				c-2.432-1.701-3.462-4.971-3.653-6.089c-0.126-0.738,1.046-6.994,2.009-11.757c0.123,0.271,0.227,0.437,0.243,0.462
				c0.08,0.127,0.215,0.193,0.354,0.193l0.226-0.065c0.196-0.125,0.255-0.386,0.13-0.581c-0.053-0.084-1.271-2.056-0.003-4.006
				c0.363-0.557,0.772-0.865,1.218-0.919c0.737-0.085,1.398,0.531,1.406,0.536c0.168,0.161,0.435,0.155,0.596-0.015
				c0.14-0.146,0.146-0.364,0.035-0.524c4.748-2.34,8.391-1.329,9.588-0.864l0.024,0.091c0.103,0.209,0.354,0.294,0.565,0.192
				c0.028-0.015,1.008-0.471,1.892,0.012c0.816,0.444,1.362,1.59,1.578,3.316c1.013,3.354,0.281,5.437-2.683,7.456
				c0.069-0.471,0.035-0.927-0.12-1.358c-0.553-1.555-2.359-2.201-2.437-2.227c-0.22-0.077-0.46,0.039-0.537,0.258
				c-0.076,0.22,0.038,0.461,0.258,0.538c0.015,0.006,1.508,0.546,1.924,1.718c0.229,0.649,0.088,1.399-0.422,2.231
				c-0.582,0.95-1.458,1.549-2.602,1.781c-1.902,0.386-3.791-0.347-4.102-0.568c-0.338-0.241-1.309-1.195-1.346-2.385
				c-0.026-0.852,0.433-1.667,1.366-2.428c0.181-0.146,0.207-0.413,0.062-0.593c-0.147-0.181-0.413-0.21-0.594-0.062
				c-1.148,0.934-1.712,1.979-1.678,3.106c0.025,0.783,0.342,1.467,0.715,2.005c-1.207-0.126-3.327-0.508-4.355-1.623
				c-0.43-0.465-0.614-1.042-0.566-1.694c0.018-0.232-0.156-0.47-0.387-0.487c-0.233-0.01-0.436,0.099-0.453,0.331
				c-0.067,0.886,0.199,1.713,0.787,2.351c1.727,1.869,5.695,1.857,5.865,1.857h0.001l0.171,0.144
				c0.494,0.31,1.846,0.998,3.377,0.998c0.427,0,0.867-0.036,1.304-0.125c1.383-0.28,2.444-1.011,3.153-2.167
				c0.07-0.116,0.113-0.227,0.172-0.34l0.072-0.021c1.25-0.751,2.215-1.523,2.913-2.352c0.806,2.64,1.708,6.222,1.456,6.936
				c-0.521,1.161-1.057,2.131-2.458,3.513c-2.372,2.34-5.489,3.044-5.521,3.052c-0.227,0.049-0.372,0.273-0.322,0.5
				c0.043,0.197,0.217,0.333,0.412,0.333l0.089-0.01c0.138-0.03,3.382-0.758,5.934-3.275c1.753-1.726,2.26-2.895,2.903-4.374
				c0.295-0.683,0.631-1.457,1.143-2.4c1.133-2.094,2.758-2.167,3.426-2.096c-0.529,2.561-1.111,5.346-1.713,8.193
				c-0.103,0.312-2.294,6.791-6.75,8.994c-4.488,2.219-7.646,0.539-7.778,0.466c-0.203-0.111-0.46-0.038-0.573,0.165
				c-0.112,0.204-0.039,0.46,0.162,0.573c0.092,0.05,1.447,0.781,3.611,0.781c1.366,0,3.055-0.291,4.953-1.229
				c0.396-0.196,0.771-0.432,1.134-0.681c0.097,1.004,0.558,2.689,2.368,4.208c-0.42,1.878-0.824,3.649-1.203,5.262
				c-1.562-1.022-5.407-3.482-6.436-3.579c-1.213-0.105-3.264,0.876-3.494,0.991l-0.007,0.005l-0.02,0.016
				c-0.091,0.054-0.157,0.132-0.187,0.226l-0.004,0.005c-0.014,0.046-1.553,4.588-9.789,7.525c-0.382-0.069-1.511-0.205-2.316,0.429
				c-0.535,0.422-0.808,1.074-0.808,1.941c0,2.723-5.897,23.843-6.335,24.588c-0.232,0.39-2.38,0.076-4.553-0.656
				c-0.232-0.377-0.92-1.321-2.174-1.727c-1.153-0.372-2.449-0.19-3.856,0.539c-2.123,1.099-5.142,1.19-7.308,1.076
				c-1.783-0.097-3.453-0.885-4.701-2.219c-4.739-5.064-5.514-4.885-5.884-4.797c-1.207,0.285-6.599,0.964-8.546,0.627
				c-1.441-0.247-3.646-1.574-4.168-2.772C0.802,62.23,0.81,61.926,0.97,61.679z"/>
			<path d="M65.232,7.11c0,0.64,0.521,1.16,1.159,1.16c0.64,0,1.16-0.521,1.16-1.16c0-0.639-0.521-1.16-1.16-1.16
				C65.753,5.95,65.232,6.472,65.232,7.11z M66.075,7.11c0-0.174,0.143-0.316,0.316-0.316c0.175,0,0.314,0.143,0.314,0.316
				s-0.14,0.316-0.314,0.316C66.218,7.427,66.075,7.284,66.075,7.11z"/>
			<path d="M56.8,7.954c0,0.64,0.52,1.159,1.16,1.159c0.639,0,1.159-0.52,1.159-1.159s-0.521-1.16-1.159-1.16
				C57.319,6.794,56.8,7.314,56.8,7.954z M57.644,7.954c0-0.175,0.143-0.316,0.316-0.316s0.315,0.142,0.315,0.316
				c0,0.174-0.142,0.316-0.315,0.316S57.644,8.128,57.644,7.954z"/>
			<path d="M79.813,73.193v-1.301h1.973c2.217,0,3.789-0.645,4.718-1.934c0.566-0.773,0.851-2.508,0.851-5.203V33.959
				c0-2.977-0.361-4.84-1.083-5.59c-1.005-1.031-2.501-1.547-4.485-1.547h-1.973v-1.301h21.347c7.837,0,13.8,0.809,17.886,2.426
				s7.373,4.312,9.861,8.086s3.732,8.133,3.732,13.078c0,6.633-2.218,12.176-6.652,16.629c-4.976,4.969-12.556,7.453-22.738,7.453
				H79.813z M94.779,69.748c3.274,0.656,6.02,0.984,8.237,0.984c5.98,0,10.944-1.91,14.889-5.73s5.917-9,5.917-15.539
				c0-6.586-1.973-11.777-5.917-15.574s-9.011-5.695-15.198-5.695c-2.32,0-4.963,0.34-7.928,1.02V69.748z"/>
			<path d="M145.452,51.092v17.25c0,1.344,0.107,2.238,0.322,2.684s0.532,0.777,0.954,0.996c0.421,0.219,1.189,0.328,2.308,0.328
				v0.844h-11.473V72.35c1.151,0,1.925-0.102,2.32-0.305c0.395-0.203,0.709-0.539,0.94-1.008c0.232-0.469,0.349-1.367,0.349-2.695
				v-8.273c0-2.328-0.078-3.836-0.232-4.523c-0.12-0.5-0.31-0.848-0.567-1.043s-0.61-0.293-1.057-0.293
				c-0.481,0-1.066,0.117-1.753,0.352l-0.361-0.844l7.115-2.625H145.452z M143.312,39.865c0.722,0,1.336,0.23,1.843,0.691
				s0.761,1.02,0.761,1.676s-0.254,1.219-0.761,1.688s-1.121,0.703-1.843,0.703s-1.341-0.234-1.856-0.703s-0.773-1.031-0.773-1.688
				s0.253-1.215,0.761-1.676C141.95,40.096,142.573,39.865,143.312,39.865z"/>
			<path d="M160.229,39.865v15.703c1.908-1.906,3.42-3.129,4.538-3.668c1.116-0.539,2.233-0.809,3.352-0.809
				c1.34,0,2.491,0.336,3.454,1.008s1.676,1.727,2.14,3.164c0.327,1,0.49,2.828,0.49,5.484v7.594c0,1.359,0.12,2.289,0.361,2.789
				c0.171,0.375,0.464,0.672,0.876,0.891c0.413,0.219,1.169,0.328,2.269,0.328v0.844h-11.602V72.35h0.542
				c1.1,0,1.864-0.152,2.294-0.457s0.73-0.754,0.902-1.348c0.052-0.25,0.078-0.984,0.078-2.203v-7.594
				c0-2.344-0.134-3.883-0.4-4.617s-0.691-1.285-1.275-1.652c-0.585-0.367-1.289-0.551-2.114-0.551c-0.843,0-1.719,0.203-2.63,0.609
				s-2.003,1.227-3.274,2.461v11.344c0,1.469,0.091,2.383,0.271,2.742c0.181,0.359,0.516,0.66,1.006,0.902s1.336,0.363,2.539,0.363
				v0.844h-11.704V72.35c1.048,0,1.873-0.148,2.475-0.445c0.344-0.156,0.619-0.453,0.825-0.891s0.31-1.328,0.31-2.672v-19.43
				c0-2.453-0.064-3.961-0.193-4.523s-0.327-0.945-0.593-1.148c-0.267-0.203-0.624-0.305-1.07-0.305
				c-0.361,0-0.945,0.125-1.753,0.375l-0.361-0.82l7.064-2.625H160.229z"/>
			<path d="M192.565,51.092c3.574,0,6.445,1.234,8.61,3.703c1.839,2.109,2.759,4.531,2.759,7.266c0,1.922-0.507,3.867-1.521,5.836
				c-1.015,1.969-2.411,3.453-4.189,4.453c-1.779,1-3.761,1.5-5.943,1.5c-3.558,0-6.385-1.289-8.481-3.867
				c-1.771-2.172-2.655-4.609-2.655-7.312c0-1.969,0.536-3.926,1.611-5.871c1.073-1.945,2.487-3.383,4.24-4.312
				C188.75,51.557,190.605,51.092,192.565,51.092z M191.766,52.615c-0.911,0-1.826,0.246-2.745,0.738
				c-0.92,0.492-1.663,1.355-2.23,2.59s-0.851,2.82-0.851,4.758c0,3.125,0.684,5.82,2.05,8.086s3.166,3.398,5.401,3.398
				c1.667,0,3.042-0.625,4.125-1.875c1.082-1.25,1.624-3.398,1.624-6.445c0-3.812-0.902-6.812-2.707-9
				C195.212,53.365,193.656,52.615,191.766,52.615z"/>
			<path d="M215.592,51.092v4.828c1.977-3.219,4.004-4.828,6.084-4.828c0.945,0,1.728,0.262,2.347,0.785
				c0.618,0.523,0.928,1.129,0.928,1.816c0,0.609-0.224,1.125-0.67,1.547c-0.447,0.422-0.98,0.633-1.599,0.633
				c-0.602,0-1.276-0.27-2.024-0.809c-0.747-0.539-1.302-0.809-1.662-0.809c-0.31,0-0.645,0.156-1.006,0.469
				c-0.773,0.641-1.572,1.695-2.397,3.164v10.289c0,1.188,0.163,2.086,0.489,2.695c0.224,0.422,0.619,0.773,1.187,1.055
				s1.383,0.422,2.449,0.422v0.844h-12.092V72.35c1.203,0,2.097-0.172,2.682-0.516c0.43-0.25,0.73-0.648,0.902-1.195
				c0.086-0.266,0.129-1.023,0.129-2.273v-8.32c0-2.5-0.057-3.988-0.168-4.465s-0.318-0.824-0.618-1.043
				c-0.302-0.219-0.675-0.328-1.122-0.328c-0.533,0-1.134,0.117-1.805,0.352l-0.258-0.844l7.142-2.625H215.592z"/>
		</g>
	</g>
</g>
</svg>
