<svg version="1.1" id="Layer_4" xmlns="http://www.w3.org/2000/svg" xmlns:xlink="http://www.w3.org/1999/xlink" x="0px" y="0px"
	 width="149.492px" height="29.417px" viewBox="0 0 149.492 29.417" enable-background="new 0 0 149.492 29.417"
	 xml:space="preserve">
<g>
	<path fill="#DEADAD" d="M18.884,14.664L0,1.681v27.736C0,29.417,18.884,14.073,18.884,14.664z"/>
	<path fill="#FCD2C1" d="M15.933,14.368c0,0,36.602-16.375,72.56-14.163c35.957,2.213,61,17.261,61,17.261
		s-31.464,9.294-71.274,8.852S15.933,14.368,15.933,14.368z"/>
	<circle fill="#394442" cx="123.764" cy="15.253" r="2.95"/>
	<path fill="#F671BD" d="M79.371,12.665c0.085,0,0.086-0.133,0-0.133C79.286,12.532,79.285,12.665,79.371,12.665L79.371,12.665z"/>
	<path fill="#D1AEA0" d="M91.796,3.558c3.572,5.953,6.723,13.006,11.386,18.172c0.203,0.224,0.627-0.01,0.521-0.303
		c-2.375-6.524-7.294-12.579-11.118-18.33C92.262,2.612,91.49,3.049,91.796,3.558L91.796,3.558z"/>
	<path fill="#D1AEA0" d="M82.638,2.401c3.255,7.087,6.997,14.783,11.971,20.832c0.591,0.719,1.592-0.196,1.223-0.942
		C92.36,15.28,87.556,8.592,83.39,1.962C83.087,1.479,82.406,1.898,82.638,2.401L82.638,2.401z"/>
	<path fill="#D1AEA0" d="M72.519,2.743c1.963,3.884,3.938,7.757,5.976,11.602c1.749,3.3,3.214,7.235,5.894,9.875
		c0.283,0.279,0.719-0.007,0.642-0.374c-0.783-3.684-3.32-7.049-5.16-10.306c-2.138-3.784-4.332-7.529-6.544-11.27
		C73.018,1.751,72.25,2.209,72.519,2.743L72.519,2.743z"/>
	<path fill="#D1AEA0" d="M63.834,5.316c1.326,3.261,2.758,6.46,4.31,9.622c1.523,3.104,2.889,6.541,5.168,9.168
		c0.463,0.534,1.311-0.038,1.145-0.667c-0.837-3.156-2.73-6.035-4.26-8.903c-1.731-3.249-3.496-6.468-5.357-9.644
		C64.535,4.375,63.592,4.722,63.834,5.316L63.834,5.316z"/>
	<path fill="#D1AEA0" d="M54.709,9.465c1.327,2.402,2.6,4.837,3.954,7.224c1.049,1.848,1.894,4.156,3.71,5.347
		c0.242,0.159,0.613-0.047,0.594-0.34c-0.146-2.17-1.741-4.045-2.834-5.865c-1.414-2.353-2.909-4.657-4.349-6.994
		C55.363,8.155,54.32,8.762,54.709,9.465L54.709,9.465z"/>
</g>
</svg>
